# Blender 4.4.0
# www.blender.org
mtllib snowman.mtl
o Cube
v 3.747085 4.500000 -3.747085
v 4.500000 -5.500000 -4.500000
v 3.747085 4.500000 3.747085
v 4.500000 -5.500000 4.500000
v -3.747085 4.500000 -3.747085
v -4.500000 -5.500000 -4.500000
v -3.747085 4.500000 3.747085
v -4.500000 -5.500000 4.500000
v 4.500000 4.500000 4.500000
v -4.500000 4.500000 4.500000
v 4.500000 4.500000 -4.500000
v -4.500000 4.500000 -4.500000
v 2.969783 9.467607 -2.969783
v 2.969783 9.467607 2.969783
v 3.747085 9.467607 3.747085
v -3.747085 9.467607 3.747085
v 3.747085 9.467607 -3.747085
v -3.747085 9.467607 -3.747085
v 2.969783 14.482979 -2.969783
v 2.969783 14.482979 2.969783
v -2.969783 9.467607 2.969783
v -2.969783 9.467607 -2.969783
v -2.969783 14.482979 2.969783
v -2.969783 14.482979 -2.969783
v -3.229752 10.940616 -0.161790
v -3.229752 11.229470 -0.421758
v -2.969783 10.706148 -0.716743
v -3.229752 10.940616 0.161790
v -2.969783 10.706148 0.716743
v -3.229752 11.229470 0.421758
v -3.229752 11.905396 -0.161790
v -2.969783 12.139864 -0.716743
v -3.229752 11.616541 -0.421758
v -3.229752 11.905396 0.161790
v -3.229752 11.616541 0.421758
v -2.969783 12.139864 0.716743
v -5.060675 11.194859 -0.076519
v -5.183628 11.331473 -0.076519
v -5.060675 11.331473 -0.199471
v -5.060675 11.194859 0.076519
v -5.060675 11.331473 0.199471
v -5.183628 11.331473 0.076519
v -5.060675 11.651152 -0.076519
v -5.060675 11.514537 -0.199471
v -5.183628 11.514537 -0.076519
v -5.060675 11.651152 0.076519
v -5.183628 11.514537 0.076519
v -5.060675 11.514537 0.199471
vn -0.0000 -0.0000 1.0000
vn -1.0000 -0.0000 -0.0000
vn -0.0000 -1.0000 -0.0000
vn 1.0000 -0.0000 -0.0000
vn -0.0000 -0.0000 -1.0000
vn -0.0000 1.0000 -0.0000
vn -0.1205 -0.0000 0.9927
vn -0.1205 -0.0000 -0.9927
vn -0.1375 0.9905 -0.0000
vn -0.9097 -0.2779 -0.3087
vn -0.9097 -0.2779 0.3087
vn -0.9097 0.2779 -0.3087
vn -0.9097 0.2779 0.3087
vn -0.5966 -0.5369 -0.5965
vn -0.5966 -0.5369 0.5965
vn -0.5965 0.5369 -0.5966
vn -0.5965 0.5369 0.5966
vn -0.6697 -0.7426 -0.0000
vn -0.6697 0.7426 -0.0000
vn -0.7502 -0.0000 0.6612
vn -0.7502 -0.0000 -0.6612
vn -0.7433 -0.6690 -0.0000
vn -0.7433 0.6690 -0.0000
vn -0.7071 -0.0000 0.7071
vn -0.7071 -0.0000 -0.7071
vn -0.1265 -0.6636 -0.7373
vn -0.1265 0.6636 -0.7373
vn -0.1265 0.6636 0.7373
vn -0.1265 -0.6636 0.7373
vn -0.1375 -0.9905 -0.0000
vt 0.002422 0.500855
vt 0.002422 0.999684
vt 0.497039 0.999684
vt 0.499500 0.500855
vt -0.000147 0.498868
vt 0.499434 0.498868
vt 0.499434 1.000000
vt -0.000147 1.000000
vt 0.000000 0.500418
vt 0.499462 0.499615
vt 0.494931 1.000000
vt 0.000000 1.000000
vt 0.125000 0.500000
vt 0.375000 0.500000
vt 0.375000 0.750000
vt 0.125000 0.750000
vt 0.001403 0.500000
vt 0.500984 0.500000
vt 0.500984 0.999582
vt 0.001403 0.999582
vt 0.002953 0.501132
vt 0.499434 0.501132
vt 0.499434 1.000713
vt 0.002953 1.000713
vt 0.312145 0.925992
vt 0.312145 0.578225
vt 0.180493 0.503085
vt 0.180493 1.001132
vt 0.479174 0.742614
vt 0.481635 0.925992
vt 0.413963 1.001132
vt 0.411503 0.751132
vt 0.529005 0.597573
vt 0.527775 0.780951
vt 0.428728 0.772433
vt 0.428728 0.522433
vt 0.449253 0.630228
vt 0.446792 0.863193
vt 0.396346 0.871710
vt 0.396346 0.621710
vt 0.336788 0.728057
vt 0.337439 0.927258
vt 0.242102 0.927258
vt 0.240427 0.728057
vt 0.502321 0.995389
vt 0.502321 0.504042
vt 0.000000 0.504042
vt 0.000000 0.995389
vt 0.498647 0.997223
vt 0.499624 0.503787
vt 0.002422 0.503787
vt 0.002422 0.997223
vt 0.500000 1.000705
vt 0.500000 0.500921
vt 0.001953 0.500921
vt 0.001953 1.000705
vt 0.349392 0.874864
vt 0.349392 0.615832
vt 0.184520 0.542689
vt 0.184520 0.948007
vt 0.398672 0.650331
vt 0.398672 0.773788
vt 0.463005 0.846932
vt 0.456804 0.663554
vt 0.182059 0.788087
vt 0.182059 0.911544
vt 0.322324 0.898321
vt 0.327245 0.714943
vt 0.481607 0.564728
vt 0.481607 0.771246
vt 0.429675 0.784470
vt 0.429675 0.551505
vt 0.457579 0.932861
vt 0.457579 0.598438
vt 0.221949 0.594740
vt 0.221949 0.936559
vt 0.271878 0.902745
vt 0.271878 0.696226
vt 0.493233 0.755186
vt 0.494009 0.631729
vt 0.432001 0.631729
vt 0.432001 0.755186
vt 0.201172 0.210257
vt 0.201172 0.210257
vt 0.201172 0.303517
vt 0.201172 0.303517
vt 0.201172 0.303517
vt 0.201172 0.274775
vt 0.201172 0.239000
vt 0.201172 0.239000
vt 0.201172 0.274775
vt 0.201172 0.239000
vt 0.786873 0.666002
vt 1.000026 0.500002
vt 0.499925 0.499951
vt 0.706889 0.665410
vt 0.706775 0.739186
vt 0.786072 0.739148
vt 0.999978 0.999993
vt 0.504850 0.999968
vt 1.000007 0.500000
vt 0.999958 0.999986
vt 0.786067 0.739143
vt 0.786869 0.665994
vt 0.706882 0.665427
vt 0.706758 0.739130
vt 0.504879 0.999968
vt 0.499944 0.500073
vt 0.201172 0.274775
vt 0.201172 0.305265
vt 0.201172 0.239000
vt 0.201172 0.208509
vt 0.201172 0.305265
vt 0.201172 0.208509
s 0
usemtl Material
f 7/1/1 3/2/1 15/3/1 16/4/1
f 4/5/1 9/6/1 10/7/1 8/8/1
f 8/9/2 10/10/2 12/11/2 6/12/2
f 6/13/3 2/14/3 4/15/3 8/16/3
f 2/17/4 11/18/4 9/19/4 4/20/4
f 6/21/5 12/22/5 11/23/5 2/24/5
f 3/25/6 7/26/6 10/27/6 9/28/6
f 1/29/6 3/30/6 9/31/6 11/32/6
f 7/33/6 5/34/6 12/35/6 10/36/6
f 5/37/6 1/38/6 11/39/6 12/40/6
f 21/41/1 14/42/1 20/43/1 23/44/1
f 1/45/5 5/46/5 18/47/5 17/48/5
f 3/49/4 1/50/4 17/51/4 15/52/4
f 5/53/2 7/54/2 16/55/2 18/56/2
f 14/57/6 21/58/6 16/59/6 15/60/6
f 13/61/6 14/62/6 15/63/6 17/64/6
f 21/65/6 22/66/6 18/67/6 16/68/6
f 22/69/6 13/70/6 17/71/6 18/72/6
f 19/73/6 24/74/6 23/75/6 20/76/6
f 13/77/5 22/78/5 24/78/5 19/77/5
f 14/79/4 13/80/4 19/81/4 20/82/4
f 30/83/7 35/83/7 48/83/7 41/84/7
f 33/85/8 26/86/8 39/86/8 44/87/8
f 38/88/2 42/89/2 47/90/2 45/91/2
f 34/92/9 31/91/9 43/91/9 46/90/9
f 29/93/2 27/94/2 22/95/2 21/96/2
f 32/97/2 36/98/2 23/99/2 24/100/2
f 36/101/2 29/102/2 21/103/2 23/104/2
f 27/105/2 32/106/2 24/107/2 22/108/2
f 25/109/10 26/86/10 27/110/10
f 28/111/11 29/112/11 30/83/11
f 31/91/12 32/113/12 33/85/12
f 34/92/13 35/83/13 36/114/13
f 37/88/14 38/88/14 39/86/14
f 40/89/15 41/84/15 42/89/15
f 43/91/16 44/87/16 45/91/16
f 46/90/17 47/90/17 48/83/17
f 28/111/18 25/109/18 27/110/18 29/112/18
f 36/114/19 32/113/19 31/91/19 34/92/19
f 35/83/20 30/83/20 29/112/20 36/114/20
f 26/86/21 33/85/21 32/113/21 27/110/21
f 42/89/22 38/88/22 37/88/22 40/89/22
f 46/90/23 43/91/23 45/91/23 47/90/23
f 47/90/24 42/89/24 41/84/24 48/83/24
f 38/88/25 45/91/25 44/87/25 39/86/25
f 25/109/26 37/88/26 39/86/26 26/86/26
f 43/91/27 31/91/27 33/85/27 44/87/27
f 48/83/28 35/83/28 34/92/28 46/90/28
f 40/89/29 28/111/29 30/83/29 41/84/29
f 25/109/30 28/111/30 40/89/30 37/88/30
